<svg width="96" height="96" viewBox="0 0 96 96" fill="none" xmlns="http://www.w3.org/2000/svg">
<g clip-path="url(#clip0_209_433)">
<path d="M18.9058 28.9999C18.3835 30.4304 17.9474 31.9915 17.597 33.7041C15.7397 42.7838 16.9021 54.5231 19.5313 63.4101C22.412 73.1471 21.5757 81.8655 30.3301 87.01C39.5581 91.3164 52.8083 85.5235 62.3861 81.087C64.4824 80.116 66.3012 79.1019 67.9091 77.9999M23.6109 21.2308C27.3622 17.2583 32.6154 14.7408 39.4028 12.1827C51.4318 7.64902 56.203 5.61294 66.6208 13.1443C74.6397 18.9413 76.1677 26.9188 78.9734 36.4075C81.6255 45.3771 82.7721 54.8628 78.9734 63.4101C77.3261 67.1165 75.6793 70.1142 73.6732 72.6453" stroke="#FCFAEE"/>
<mask id="mask0_209_433" style="mask-type:alpha" maskUnits="userSpaceOnUse" x="16" y="8" width="66" height="81">
<path d="M19.5313 63.4101C16.9021 54.5231 15.7397 42.7838 17.597 33.7041C17.9296 32.0783 18.3395 30.589 18.8271 29.2184L21 28.4999L23 26.9999L24 24.9999L24 22.9999L23.5 21.3491C27.2584 17.3081 32.5483 14.7661 39.4028 12.1827C51.4318 7.64902 56.203 5.61293 66.6208 13.1443C74.6397 18.9413 76.1677 26.9188 78.9734 36.4075C81.6255 45.3771 82.7721 54.8628 78.9734 63.4101C75.0554 72.2258 71.1397 77.0323 62.3861 81.087C52.8083 85.5235 39.5582 91.3163 30.3301 87.01C21.5757 81.8655 22.412 73.1471 19.5313 63.4101Z" fill="#FCFAEE"/>
</mask>
<g mask="url(#mask0_209_433)">
<path d="M51.3401 42.1089L52.0001 41.5927C52.0001 41.5927 53.6002 40.3699 53.8001 40.185C54 40.0001 54.1051 38.0498 54.1051 38.0498" stroke="#FCFAEE"/>
<path d="M30.2801 77.1049C30.0801 77.0249 29.3201 76.6649 29.3201 76.4649C29.3201 76.2649 29.2801 75.8249 29.1601 75.5449C29.0401 75.2649 28.5601 75.0249 28.4801 74.8649C28.4001 74.7049 28.4801 74.3449 28.4801 74.0649C28.4801 73.8409 28.58 73.6067 28.5 73.5H30.5" stroke="#FCFAEE"/>
<path d="M34.5 49.6802C33.9763 50.0034 33.1694 50.5111 32.92 50.705C32.56 50.985 32.16 51.385 32.08 51.585C32 51.785 32.08 52.305 32.08 52.425C32.08 52.545 32.36 52.865 32.36 52.985C32.36 53.105 30.6 53.785 30.36 54.025C30.12 54.265 30 55.185 29.88 55.505C29.76 55.825 28.56 56.665 28.2 57.065C27.84 57.465 27.32 58.025 27.28 58.425C27.24 58.825 27.36 59.185 27.4 59.345C27.44 59.505 27.2 61.225 27.12 61.905C27.04 62.585 26.92 63.705 26.92 64.065C26.92 64.425 26.92 64.545 26.92 64.665C26.92 64.785 26.72 65.265 26.68 65.545C26.64 65.825 26.76 66.865 26.8 67.145C26.84 67.425 26.8 68.025 26.8 68.185C26.8 68.345 27.12 68.665 27.12 68.985C27.12 69.305 27 69.305 26.96 69.465C26.928 69.593 26.9467 70.2383 26.96 70.545C27.16 71.265 27.56 72.105 27.68 72.385C27.8 72.665 27.92 73.145 28 73.305C28.064 73.433 28.1334 73.545 28.16 73.585C28.4134 73.2783 28.976 72.609 29.2 72.385C29.48 72.105 30.04 71.585 30.28 71.265C30.52 70.945 31.12 70.265 31.4 69.945C31.68 69.625 31.96 69.385 32.24 69.105C32.52 68.825 33 68.385 33.28 68.025C33.504 67.737 34.5734 66.785 35.08 66.345L37.72 65.265L38.8403 65.489" stroke="#FCFAEE"/>
<path d="M32.4801 83.385C32.4401 83.625 32.2401 83.945 32.2401 84.145C32.2401 84.345 32.4001 84.745 32.3601 84.945C32.3201 85.145 32.0001 85.185 31.9201 85.465C31.8401 85.745 32.0001 85.825 31.9201 85.945C31.8401 86.065 31.5601 86.065 31.5201 86.265C31.4801 86.465 31.5601 86.705 31.4001 86.825C31.2401 86.945 31.1601 86.625 31.0801 86.905C31.0161 87.129 31.1601 87.745 31.2401 88.025H22.7201C22.7201 87.9584 22.7521 87.729 22.8801 87.345C23.0401 86.865 23.3601 86.385 23.6001 86.185C23.8401 85.985 24.2001 85.585 24.6401 85.185C25.0801 84.785 25.6401 84.265 25.8001 84.145C25.9601 84.025 25.8801 83.865 25.8001 83.905C25.7201 83.945 25.5201 84.025 25.5201 83.945C25.5201 83.865 25.6801 83.745 25.9601 83.465C26.2401 83.185 27.1201 82.585 27.0401 82.425C26.9601 82.265 25.8801 82.865 25.5201 83.065C25.1601 83.265 24.4401 83.745 24.4001 83.705C24.3601 83.665 24.6401 83.385 24.8401 83.185C25.0401 82.985 25.5601 82.545 25.7201 82.425C25.8801 82.305 26.4001 81.945 26.7201 81.745C27.0401 81.545 27.5601 81.265 27.6001 81.145C27.6401 81.025 27.4001 81.121 27.2401 81.185C27.0401 81.265 26.8801 81.385 26.6801 81.505C26.5201 81.601 25.8001 82.025 25.7601 81.985C25.7201 81.945 26.0401 81.705 26.1601 81.625C26.2801 81.545 26.9601 81.065 27.2401 80.865C27.5201 80.665 27.6001 80.545 27.5601 80.505C27.5201 80.465 27.3201 80.465 27.0401 80.545C26.7601 80.625 26.4801 80.785 26.6001 80.625C26.7201 80.465 27.8001 79.905 28.0001 79.785C28.2001 79.665 28.6401 79.385 29.2801 78.825C29.6026 78.5428 29.9949 78.2776 30.3111 78.0833" stroke="#FCFAEE"/>
<path d="M61.5201 74.5C61.5201 75.0142 61.5201 75.5492 61.5201 75.8249C61.5201 76.3049 61.2001 77.9449 61.0401 78.7049C61.0934 79.1715 61.2321 80.2649 61.3601 80.9049C61.5201 81.7049 61.8401 83.3449 61.8001 84.2249C61.7601 85.1049 61.4801 85.9849 61.3601 86.2649C61.2641 86.4889 60.6801 87.6916 60.4001 88.2649L37.8401 88.1049L38.4401 86.0649L38.5763 83" stroke="#FCFAEE"/>
<path d="M65.0801 31.8806C65.125 32.0678 65.1743 32.2518 65.2096 32.4037C65.4959 33.6358 66.8705 36.9384 67.241 37.7365C67.709 38.7445 68.2356 40.8428 68.4397 41.6654C68.5233 42.0023 68.6001 42.4127 68.6566 42.8318C68.6758 42.9737 68.6926 43.1166 68.7067 43.258" stroke="#FCFAEE"/>
<path d="M55.3615 48.6342L54.4001 50.145L52.0401 54.065L52.3601 58.945L50.9092 61.225M55.5705 45.305H54.7253H53.8801L52.0401 44.225L51.5601 42.065L52.0401 40.865C51.8801 40.905 51.5041 41.033 51.2801 41.225C51.0001 41.465 50.6401 41.905 50.5201 42.065C50.4001 42.225 49.2001 43.425 48.8801 43.745C48.5601 44.065 47.7201 44.865 47.5201 45.065C47.3201 45.265 46.8001 45.385 46.6001 45.625C46.4913 45.7555 46.2284 46.0291 46 46.2621" stroke="#FCFAEE"/>
<path d="M62.9199 39.5C63.0891 39.6674 63.2401 39.8315 63.3601 39.9849C63.6878 40.4036 65.9398 41.4132 67.6001 42.4249C68.8583 43.1915 69.6401 43.8249 70.2801 44.3849C69.9068 44.6915 68.6161 45.0969 68.0401 45.3849C67.4641 45.6729 66.5601 46.8382 66.2001 47.4249L59.0001 59.0249L57.4401 58.3449L56.0001 61.0249L53.7201 65.1449L52.0001 69.5049L44.1676 70.0202" stroke="#FCFAEE"/>
<path d="M43.3383 69.3121C44.7649 69.3779 45.907 69.4058 46.0469 69.3359C46.4469 69.1359 46.7669 68.0559 47.2869 67.9359C47.8069 67.8159 50.0469 68.3359 50.9269 68.0959C51.8069 67.8559 53.9669 64.3759 54.6469 63.2159C55.3269 62.0559 57.5669 57.4959 57.5669 57.4959C57.5669 57.4959 58.8869 58.5759 59.0469 58.5359C59.2069 58.4959 60.2869 56.4558 60.5669 56.0559C60.6504 55.9365 62.6069 52.7358 63.6469 51.0158C64.1075 50.254 65.6869 47.5358 66.3669 46.7758C66.724 46.3767 67.6228 44.9191 68.6069 44.3357C69.4969 43.8082 70.1669 43.9758 70.5269 44.3357C70.8869 44.6956 71.5671 46.0326 71.8469 47.3759C72.1274 48.7225 72.0068 49.9753 72.0869 50.4559C72.2469 51.4159 72.0869 55.8559 72.0869 56.8959C72.0869 57.7279 71.6469 58.4959 71.6069 58.8559C71.5669 59.2159 71.2069 60.4159 71.0469 60.7759C70.8869 61.1359 70.5669 61.7359 70.5669 61.9759C70.4735 62.2159 70.2389 62.7839 70.0469 63.1359C69.8549 63.4879 67.2202 67.1492 65.9269 68.9359L63.2469 72.4159L61.3269 74.8559C60.3802 75.6425 58.3349 77.3039 57.7269 77.6559C56.9669 78.0959 51.6869 79.9759 50.5269 80.2559C49.3669 80.5359 48.4069 80.9359 47.6069 80.9759C46.9669 81.0079 44.3269 80.9759 43.9669 80.9759C43.6069 80.9759 42.0069 82.0159 41.2869 82.2959C40.5669 82.5759 38.0389 83.2399 37.0469 83.3359C36.0549 83.4319 32.9269 83.6959 32.5269 83.6159C32.1269 83.5359 30.9669 81.4959 30.7669 80.9759C30.5669 80.4559 29.9269 74.976 30.0069 74.3759C30.0869 73.7757 31.1669 72.9357 31.1669 72.9357L34.0125 71" stroke="#FCFAEE"/>
<path d="M52.6486 40.767C52.8274 40.6106 53.0084 40.1824 53.0953 40C52.9091 40.1173 52.5294 40.4074 52.3507 40.5324C52.1273 40.6888 51.6804 40.9233 51.4942 41.0797C51.308 41.236 51.1219 41.5096 51.0846 41.705C51.0474 41.9005 50.9729 42.4086 51.0101 42.7604C51.0474 43.1122 51.1219 43.4248 51.1963 43.6985C51.2708 43.9721 51.457 44.3629 51.6059 44.6756L51.606 44.6756C51.7549 44.9883 52.1645 45.3401 52.4624 45.5355C52.7603 45.731 53.3189 45.8873 53.8402 45.9655C54.2573 46.028 54.858 45.9915 55.1063 45.9655L55.218 45.8873L55.5531 45.6137L56 44.6756C55.7145 44.7147 55.1063 44.7929 54.9573 44.7929C54.7712 44.7929 53.8775 44.871 53.3934 44.7929C52.9093 44.7147 52.3879 44.3238 52.3507 44.2066C52.3135 44.0893 52.3879 43.6985 52.239 43.4248C52.09 43.1512 51.8294 42.2913 51.7921 42.0177C51.7549 41.7441 51.9411 41.5096 52.0528 41.2751C52.1645 41.0406 52.4252 40.9624 52.6486 40.767Z" fill="#FCFAEE"/>
<path d="M52.3201 38.1449C52.6001 38.2249 53.1601 38.2249 53.8801 38.1449C54.6001 38.0649 56.1601 37.4649 56.7601 37.1449C57.011 37.0111 57.2655 36.835 57.478 36.6726" stroke="#FCFAEE"/>
<path d="M41.4401 40.9849L42.4001 38.2249C42.5601 37.4782 42.9201 35.7769 43.0801 34.9449C43.2801 33.9049 43.7201 32.8249 43.8001 32.4249C43.8801 32.0249 43.8801 30.9049 43.9601 30.5049C44.0401 30.1049 44.4001 29.1849 44.4801 28.3449C44.5601 27.5049 44.9601 25.0649 45.3601 23.5849C45.7601 22.1049 46.5201 20.4649 47.1201 19.3449C47.7201 18.2249 48.7601 17.1049 49.3201 16.5449C49.8801 15.9849 50.6801 15.5849 51.0001 15.4249C51.3201 15.2649 51.9201 15.1849 52.2001 15.1849C52.4801 15.1849 52.8001 15.2249 53.0401 15.2649C53.2321 15.2969 53.6534 15.4382 53.8401 15.5049C54.0401 15.3716 54.4961 15.0809 54.7201 14.9849C55.0001 14.8649 55.4001 14.7849 55.9201 14.7849C56.4401 14.7849 57.3601 14.9049 58.4401 15.5049C59.5201 16.1049 60.2401 16.6649 60.9201 17.3849C61.6001 18.1049 62.6801 19.9449 62.9601 20.5849C63.2401 21.2249 64.2001 23.5849 64.6401 24.7449C65.0801 25.9049 65.2401 28.5049 65.2001 29.8649C65.1601 31.2249 65.0001 33.3849 64.6401 35.4249C64.2801 37.4649 63.3601 38.7849 62.5601 40.1049C61.9201 41.1609 61.2267 42.1716 60.9601 42.5449C60.9601 42.8116 60.8561 43.6329 60.4401 44.7849C59.9201 46.2249 58.5201 48.5049 57.9201 49.4249C57.3201 50.3449 55.3601 52.2249 55.6801 51.8249C56.0001 51.4249 56.6801 50.4249 57.2401 49.5049C57.6881 48.7689 58.3067 47.3049 58.5601 46.6649C58.0801 47.0516 56.8721 47.9529 55.8801 48.4649C54.6401 49.1049 53.3601 49.5849 51.7601 49.7849C50.5332 49.9383 49.1201 49.9849 48.7601 49.7849C50.0801 49.3449 52.9361 48.5049 53.6401 48.0249C54.5201 47.4249 55.2801 46.5849 55.3601 46.3449C55.4401 46.1049 55.6001 45.2249 55.6001 44.9849C55.6001 44.7449 55.6001 41.6649 55.8801 40.2649C56.1601 38.8649 57.1201 37.2249 57.4001 36.7449C57.6801 36.2649 60.2401 32.2649 60.5201 31.5849C60.8001 30.9049 61.1601 29.2249 61.2401 27.3449C61.3041 25.8409 60.6001 24.2116 60.2401 23.5849C59.2934 23.0649 57.1681 21.8649 56.2401 21.2249C55.3121 20.5849 53.7201 18.9049 53.0401 18.1449C52.8534 18.1716 52.4081 18.2489 52.1201 18.3449C51.7601 18.4649 51.2401 18.7449 50.6001 19.1049C49.9601 19.4649 49.4401 19.7849 49.0401 20.1449C48.6401 20.5049 48.2401 21.2249 47.8801 21.9849C47.5201 22.7449 47.2001 24.0249 47.1601 24.5449C47.1201 25.0649 47.0001 26.3049 47.0401 26.8249C47.0801 27.3449 47.0001 28.3449 46.9201 28.9449C46.8401 29.5449 46.8801 30.3849 46.9201 30.7049C46.9601 31.0249 47.0801 31.5049 47.2401 31.8649C47.4001 32.2249 47.7601 32.9049 47.8401 33.0649C47.9201 33.2249 48.0001 33.4249 48.2801 33.9449C48.5601 34.4649 49.2801 35.4249 49.6001 35.7849C49.9201 36.1449 50.5201 36.7449 50.6801 36.8649C50.8401 36.9849 50.9601 37.1049 51.3601 37.5449C51.6801 37.8969 52.3732 38.16 52.5599 38.2C52.5599 38.2 52.2799 38.24 52.1599 38.32C52.0399 38.4 50.4401 40.1049 49.1601 41.4649C48.4727 42.1952 46.9203 43.2874 45.5 44.037" stroke="#FCFAEE"/>
<path d="M42.5601 40.865C42.4001 40.929 42.2801 40.945 42.2401 40.945C42.0934 40.8783 41.9419 40.8177 41.6801 40.785C41.3601 40.745 40.9201 40.705 40.6001 40.705C40.4001 40.705 40.2001 40.705 39.8001 40.745C39.5375 40.7712 39.0934 40.7717 38.8801 40.745C38.7601 40.6517 38.6001 40.545 38.4401 40.425L38.4401 40.425C38.2267 40.265 38.1201 40.185 37.9601 40.025C37.8186 39.8836 37.2801 39.185 37.0401 38.945C36.8001 38.705 36.4801 38.225 36.1201 37.985C35.9712 37.8858 35.6801 37.825 35.5201 37.865C35.3601 37.905 35.2401 38.185 35.1601 38.385C35.0801 38.585 35.0001 38.945 35.0001 39.345C35.0001 39.745 34.9753 40.4665 35.0001 40.665C35.0401 40.985 35.1601 41.305 35.2401 41.625C35.3201 41.945 35.2801 42.265 35.2401 42.705C35.2001 43.145 35.0001 43.625 34.8401 43.985C34.6801 44.345 34.1601 44.945 34.1601 45.025C34.1601 45.105 34.2801 45.505 34.4001 45.665C34.5201 45.825 34.6401 46.185 34.6401 46.345C34.6401 46.505 34.4001 46.625 34.4001 46.705C34.4001 46.785 34.5601 46.865 34.5601 46.985C34.5601 47.105 34.3201 47.305 34.2801 47.465C34.2401 47.625 34.8401 47.705 34.8401 47.825C34.8401 47.945 34.4001 48.265 34.4001 48.425C34.4001 48.585 34.6401 48.825 34.6401 49.185C34.6401 49.545 34.4001 49.825 34.4001 49.985C34.4001 50.145 34.7201 50.465 34.7201 50.705C34.7201 50.897 34.5067 51.265 34.4001 51.425C34.2267 51.5717 33.8641 51.937 33.8001 52.225C33.7201 52.585 33.8001 53.145 33.7201 53.425C33.6401 53.705 33.3201 54.185 33.3201 54.865C33.3201 55.705 33.6801 56.785 33.8801 57.305C34.0801 57.825 34.8401 58.545 34.9201 59.145C35.0001 59.745 34.8801 60.905 35.1201 61.265C35.5201 61.465 36.0001 61.865 36.4801 62.305C36.9601 62.745 37.4801 63.105 37.5601 63.345C37.6241 63.537 37.5867 63.6917 37.5601 63.745C37.9867 64.3183 38.8641 65.473 38.9601 65.505C39.0801 65.545 40.0801 66.305 40.4001 66.585C40.6561 66.809 41.3334 67.3983 41.6401 67.665C41.6001 67.465 41.5121 67.041 41.4801 66.945C41.4401 66.825 41.2001 66.185 41.0801 65.825C40.9601 65.465 40.7601 64.905 40.5201 64.385C40.3281 63.969 40.1467 63.3583 40.0801 63.105C40.1067 63.0117 40.1601 62.753 40.1601 62.465V61.585L40.4001 61.425C40.6001 61.265 41.0401 60.897 41.2001 60.705C41.4001 60.465 42.0801 59.985 42.5201 59.785C42.8721 59.625 43.3867 59.7183 43.6001 59.785C43.7867 59.8783 44.2241 60.121 44.4801 60.345C44.7361 60.569 44.9601 60.8383 45.0401 60.945C45.3067 61.0383 45.9201 61.249 46.2401 61.345C46.6401 61.465 47.0801 61.625 47.4001 61.865C47.7201 62.105 48.0401 62.505 48.4001 62.585C48.6881 62.649 51.4001 61.585 51.4001 61.425C51.4001 61.265 50.6961 60.921 50.6001 60.825C50.5041 60.729 50.4267 60.2783 50.4001 60.065L50.1201 59.785L49.7601 59.065C49.7281 59.001 49.4801 58.8783 49.3601 58.825C49.1334 58.3983 48.6001 57.433 48.2801 56.985C47.8801 56.425 47.6001 55.465 47.5201 54.865C47.4401 54.265 47.6001 53.185 47.4001 52.585C47.2401 52.105 46.9334 51.4783 46.8001 51.225V50.705C46.8001 50.585 46.6401 49.945 46.6001 49.745C46.5601 49.545 46.3601 49.145 46.2801 49.025C46.2161 48.929 45.9334 48.745 45.8001 48.665C45.8134 48.5983 45.8481 48.457 45.8801 48.425C45.9201 48.385 45.9601 48.145 45.9201 47.945C45.8801 47.745 45.8401 47.545 45.8801 47.305C45.9201 47.065 45.9601 46.465 45.9601 46.265C45.9601 46.065 45.9601 45.305 45.8801 45.145C45.8001 44.985 45.5201 44.545 45.5201 44.465C45.5201 44.401 45.4934 44.065 45.4801 43.905V43.305C45.4801 43.209 45.4534 42.785 45.4401 42.585C45.4801 42.545 45.5681 42.441 45.6001 42.345C45.6321 42.249 45.6401 42.0917 45.6401 42.025C45.7334 41.7983 45.9361 41.297 46.0001 41.105C46.0801 40.865 46.2001 40.105 46.2001 39.905V39.345C46.2001 39.265 46.0801 39.025 46.0001 38.945C45.9201 38.865 45.8401 38.865 45.6401 38.865C45.4401 38.865 45.2001 39.025 44.9601 39.185C44.7681 39.313 43.6534 40.225 43.1201 40.665C43.0001 40.705 42.7201 40.801 42.5601 40.865Z" stroke="#FCFAEE"/>
<path d="M40.1601 46.6649C39.6001 46.6249 39.3601 46.6649 39.3601 46.7849C39.3601 46.9049 39.4401 46.9049 39.5201 46.9449C39.6001 46.9849 39.6801 47.0249 39.8401 47.0649C40.0001 47.1049 40.0001 47.2249 40.0001 47.3049V47.3049C40.0001 47.3849 39.9601 47.6249 40.1601 47.6249C40.3601 47.6249 40.3201 47.3049 40.3601 47.2249C40.4001 47.1449 40.6001 47.1449 40.7201 47.1449C40.8401 47.1449 41.0401 47.1049 41.0401 46.9449C41.0401 46.7849 40.7201 46.7049 40.1601 46.6649Z" fill="#FCFAEE"/>
<path d="M39.7201 66.025C39.0801 65.513 38.4401 65.145 38.0001 65.025C37.5601 64.905 36.8401 65.105 35.6001 65.825C34.3601 66.545 33.2401 68.025 33.2401 68.025C33.3868 68.1316 33.4561 68.257 33.5201 68.385C33.6001 68.545 33.6401 69.585 33.7601 70.185C33.8801 70.785 34.0801 71.385 34.1601 71.825C34.2401 72.265 34.2401 72.865 34.3601 73.265C34.4801 73.665 35.1601 74.265 35.4001 74.705C35.6401 75.145 36.3601 76.065 36.4801 76.225C36.6001 76.385 36.7601 76.705 36.9601 76.825C37.1601 76.945 37.2001 76.865 37.3601 76.945C37.5201 77.025 37.6801 77.065 37.9201 77.185C38.1601 77.305 38.5201 77.465 38.7601 77.505C38.9521 77.537 39.1068 77.4383 39.1601 77.385C39.5201 77.585 40.2881 78.001 40.4801 78.065C40.7201 78.145 41.0801 78.065 41.2001 77.985C41.3201 77.905 41.2801 77.785 41.3601 77.825C41.4401 77.865 41.9601 78.225 42.1601 78.305C42.3201 78.369 42.5468 78.3316 42.6401 78.305L43.0401 78.465C43.2401 78.545 43.3601 78.465 43.4801 78.385C43.5761 78.321 43.6001 78.1983 43.6001 78.145C43.7068 78.1983 43.9441 78.321 44.0401 78.385C44.1601 78.465 44.3601 78.385 44.4801 78.305C44.6001 78.225 44.6801 78.025 44.6801 77.905C44.6801 77.785 44.7601 77.425 44.5601 76.945C44.3601 76.465 44.1501 76.265 44.0001 76.065C43.8801 75.905 43.6801 75.585 43.5601 75.425C43.4401 75.265 43.2521 74.9642 43.0401 74.625C42.8401 74.305 42.7419 74.065 42.4801 73.705C42.1601 73.265 41.9034 72.9148 41.7201 72.585C41.5201 72.225 41.1125 71.3067 41.0801 71.145C41.0401 70.945 41.0668 70.4516 41.0801 70.185C41.1334 70.2916 41.2342 70.462 41.3201 70.505C41.4001 70.545 41.5868 70.6116 41.6401 70.665C41.7868 70.7583 42.1201 70.985 42.2801 71.145C42.4801 71.345 43.1601 71.825 43.4801 72.225C43.8001 72.625 44.4801 72.745 44.9601 72.785C45.4401 72.825 45.7601 72.745 46.0801 72.545C46.3361 72.385 46.4001 71.9983 46.4001 71.825C45.9601 71.6383 45.0561 71.241 44.9601 71.145C44.8401 71.025 44.6001 70.625 44.4801 70.505C44.3601 70.385 43.8001 70.025 43.6801 69.905C43.5601 69.785 42.9601 69.105 42.8401 68.945C42.7201 68.785 42.6401 68.585 42.2801 68.225C41.9201 67.865 40.5201 66.665 39.7201 66.025Z" stroke="#FCFAEE"/>
<ellipse cx="44.2728" cy="62.0304" rx="0.736551" ry="0.704025" transform="rotate(28.397 44.2728 62.0304)" fill="#FCFAEE"/>
<ellipse cx="27.0423" cy="67.4418" rx="0.525299" ry="0.994178" transform="rotate(2.1625 27.0423 67.4418)" fill="#FCFAEE"/>
<ellipse cx="40.0602" cy="81.0061" rx="1.01116" ry="0.862733" transform="rotate(33.7816 40.0602 81.0061)" fill="#FCFAEE"/>
<path d="M53.4259 59.8801C53.3619 59.8481 53.1859 59.8667 53.1059 59.8801C53.1059 59.7867 53.0979 59.5761 53.0659 59.4801C53.0259 59.3601 52.8259 59.2401 52.6659 59.2801C52.5059 59.3201 52.3859 59.5201 52.3459 59.6401C52.3139 59.7361 52.3326 59.9734 52.3459 60.0801C52.3059 60.1067 52.2526 60.1201 52.2259 60.2001C52.1992 60.2801 52.2259 60.3201 52.2259 60.3601C52.0792 60.5201 51.8659 60.6801 51.7859 60.8801C51.7059 61.0801 51.7326 61.1601 51.7459 61.2001L51.5859 61.2801C51.5059 61.3201 51.4659 61.3601 51.4259 61.4001C51.3859 61.4401 51.2259 61.6401 51.2659 61.8401C51.3059 62.0401 53.0259 62.9601 53.1459 62.9601C53.2659 62.9601 53.5459 62.5601 53.5459 62.4001C53.5459 62.2401 53.4659 62.1467 53.4259 62.0801C53.4926 62.0267 53.6339 61.9121 53.6659 61.8801C53.7059 61.8401 53.7859 61.6401 53.7859 61.5201V61.2401C53.8526 61.2134 53.9859 61.2001 54.0659 61.1201C54.1459 61.0401 54.1459 60.9601 54.1459 60.8801C54.1459 60.8161 54.0926 60.7334 54.0659 60.7201C54.1059 60.6801 54.2259 60.6001 54.2659 60.5601C54.3059 60.5201 54.3459 60.4401 54.3459 60.3201C54.3459 60.2001 54.2259 60.0801 54.1059 60.0801C53.9859 60.0801 53.7992 60.1867 53.7059 60.2401C53.6926 60.2001 53.7059 60.1601 53.6659 60.0801C53.6259 60.0001 53.5059 59.9201 53.4259 59.8801Z" fill="#FCFAEE"/>
<path d="M53.2659 58.3201C53.0419 58.3201 52.7459 58.5867 52.6259 58.7201L52.3059 59.3601C52.3859 59.3067 52.5859 59.1841 52.7459 59.1201C52.9459 59.0401 52.9859 59.2001 53.1059 59.1201C53.2019 59.0561 53.1459 58.8267 53.1059 58.7201H53.3859C53.3459 58.8134 53.2899 59.0401 53.3859 59.2001C53.4819 59.3601 53.6926 59.3734 53.7859 59.3601C53.8659 59.4667 54.0499 59.6881 54.1459 59.7201C54.2419 59.7521 54.3193 59.7867 54.3459 59.8001C54.3459 59.8667 54.3619 60.0241 54.4259 60.1201C54.4899 60.2161 54.5859 60.2401 54.6259 60.2401L54.5059 60.5201V61.1201C54.5059 61.2801 54.0259 61.7201 53.9459 61.8801C53.8819 62.0081 53.9193 62.2001 53.9459 62.2801C53.8526 62.3601 53.6579 62.5521 53.6259 62.6801C53.5859 62.8401 53.4659 63.2001 53.2659 63.3201C53.0659 63.4401 51.7859 62.4801 51.6659 62.4001C51.5459 62.3201 51.4659 62.4001 51.4259 62.2801C51.3939 62.1841 51.1459 62.1067 51.0259 62.0801L50.5859 62.8801C50.6126 62.9201 50.6899 63.0001 50.7859 63.0001H51.0259L51.1859 63.2001C51.3459 63.2934 51.6899 63.4961 51.7859 63.5601C51.8819 63.6241 51.9859 63.5867 52.0259 63.5601C52.0393 63.6267 52.0979 63.7681 52.2259 63.8001C52.3539 63.8321 53.0526 64.1334 53.3859 64.2801C53.4926 64.2001 53.7219 64.0161 53.7859 63.9201C53.8499 63.8241 53.8126 63.6401 53.7859 63.5601C53.8659 63.5334 54.0259 63.4481 54.0259 63.3201V63.0001C54.1326 62.9601 54.3459 62.8561 54.3459 62.7601V62.4001L54.6259 62.1601C54.6681 62.0954 54.7599 62.0401 54.7929 61.9201C54.8259 61.8001 54.5882 61.6557 54.6259 61.6001C54.6534 61.5596 54.9059 61.6801 54.9859 61.6363C55.0659 61.5925 55.1859 61.4401 55.1459 61.3601C55.1059 61.2801 55.0659 61.2801 55.1059 61.2001C55.1459 61.1201 55.3059 61.0801 55.3459 60.9601C55.3859 60.8401 55.4894 60.137 55.3059 59.8401C55.272 59.7851 54.8933 59.8914 54.8659 59.8401C54.8273 59.7677 54.8007 59.74 54.7859 59.6801C54.7698 59.6145 55.2391 59.5997 55.2259 59.5601C55.1642 59.3749 54.8659 59.0001 54.7859 59.0001C54.7059 59.0001 54.5824 59.0749 54.5459 59.0401C54.5161 59.0116 54.5459 58.8801 54.5059 58.8001C54.4659 58.7201 53.5459 58.3201 53.2659 58.3201Z" fill="#FCFAEE"/>
</g>
<g filter="url(#filter0_d_209_433)">
<circle cx="72.32" cy="76.9599" r="4.54" stroke="#FCFAEE" shape-rendering="crispEdges"/>
</g>
<g filter="url(#filter1_d_209_433)">
<circle cx="18.8" cy="23.6801" r="5.34" stroke="#FCFAEE" shape-rendering="crispEdges"/>
</g>
<g filter="url(#filter2_d_209_433)">
<circle cx="28.1999" cy="14.6799" r="2.26" stroke="#FCFAEE" shape-rendering="crispEdges"/>
</g>
</g>
<defs>
<filter id="filter0_d_209_433" x="17.28" y="25.9199" width="110.08" height="110.08" filterUnits="userSpaceOnUse" color-interpolation-filters="sRGB">
<feFlood flood-opacity="0" result="BackgroundImageFix"/>
<feColorMatrix in="SourceAlpha" type="matrix" values="0 0 0 0 0 0 0 0 0 0 0 0 0 0 0 0 0 0 127 0" result="hardAlpha"/>
<feOffset dy="4"/>
<feGaussianBlur stdDeviation="25"/>
<feComposite in2="hardAlpha" operator="out"/>
<feColorMatrix type="matrix" values="0 0 0 0 0.133333 0 0 0 0 0.2 0 0 0 0 0.329412 0 0 0 0.25 0"/>
<feBlend mode="multiply" in2="BackgroundImageFix" result="effect1_dropShadow_209_433"/>
<feBlend mode="normal" in="SourceGraphic" in2="effect1_dropShadow_209_433" result="shape"/>
</filter>
<filter id="filter1_d_209_433" x="-37.04" y="-28.1599" width="111.68" height="111.68" filterUnits="userSpaceOnUse" color-interpolation-filters="sRGB">
<feFlood flood-opacity="0" result="BackgroundImageFix"/>
<feColorMatrix in="SourceAlpha" type="matrix" values="0 0 0 0 0 0 0 0 0 0 0 0 0 0 0 0 0 0 127 0" result="hardAlpha"/>
<feOffset dy="4"/>
<feGaussianBlur stdDeviation="25"/>
<feComposite in2="hardAlpha" operator="out"/>
<feColorMatrix type="matrix" values="0 0 0 0 0.133333 0 0 0 0 0.2 0 0 0 0 0.329412 0 0 0 0.25 0"/>
<feBlend mode="multiply" in2="BackgroundImageFix" result="effect1_dropShadow_209_433"/>
<feBlend mode="normal" in="SourceGraphic" in2="effect1_dropShadow_209_433" result="shape"/>
</filter>
<filter id="filter2_d_209_433" x="-24.5601" y="-34.0801" width="105.52" height="105.52" filterUnits="userSpaceOnUse" color-interpolation-filters="sRGB">
<feFlood flood-opacity="0" result="BackgroundImageFix"/>
<feColorMatrix in="SourceAlpha" type="matrix" values="0 0 0 0 0 0 0 0 0 0 0 0 0 0 0 0 0 0 127 0" result="hardAlpha"/>
<feOffset dy="4"/>
<feGaussianBlur stdDeviation="25"/>
<feComposite in2="hardAlpha" operator="out"/>
<feColorMatrix type="matrix" values="0 0 0 0 0.133333 0 0 0 0 0.2 0 0 0 0 0.329412 0 0 0 0.25 0"/>
<feBlend mode="multiply" in2="BackgroundImageFix" result="effect1_dropShadow_209_433"/>
<feBlend mode="normal" in="SourceGraphic" in2="effect1_dropShadow_209_433" result="shape"/>
</filter>
<clipPath id="clip0_209_433">
<rect width="96" height="96" fill="white"/>
</clipPath>
</defs>
</svg>
